<?xml version="1.0" encoding="UTF-8" standalone="no"?>
<!-- Created with Inkscape (http://www.inkscape.org/) -->

<svg
   xmlns:dc="http://purl.org/dc/elements/1.1/"
   xmlns:cc="http://creativecommons.org/ns#"
   xmlns:rdf="http://www.w3.org/1999/02/22-rdf-syntax-ns#"
   xmlns:svg="http://www.w3.org/2000/svg"
   xmlns="http://www.w3.org/2000/svg"
   xmlns:sodipodi="http://sodipodi.sourceforge.net/DTD/sodipodi-0.dtd"
   xmlns:inkscape="http://www.inkscape.org/namespaces/inkscape"
   id="svg3064"
   version="1.1"
   inkscape:version="0.48.4 r9939"
   width="3284.6519"
   height="3283.1189"
   sodipodi:docname="football.svg">
  <metadata
     id="metadata3070">
    <rdf:RDF>
      <cc:Work
         rdf:about="">
        <dc:format>image/svg+xml</dc:format>
        <dc:type
           rdf:resource="http://purl.org/dc/dcmitype/StillImage" />
        <dc:title></dc:title>
      </cc:Work>
    </rdf:RDF>
  </metadata>
  <defs
     id="defs3068" />
  <sodipodi:namedview
     pagecolor="#ffffff"
     bordercolor="#666666"
     borderopacity="1"
     objecttolerance="10"
     gridtolerance="10"
     guidetolerance="10"
     inkscape:pageopacity="0"
     inkscape:pageshadow="2"
     inkscape:window-width="1855"
     inkscape:window-height="1056"
     id="namedview3066"
     showgrid="false"
     fit-margin-top="0"
     fit-margin-left="0"
     fit-margin-right="0"
     fit-margin-bottom="0"
     inkscape:zoom="0.071885471"
     inkscape:cx="1622.2476"
     inkscape:cy="1738.8915"
     inkscape:window-x="65"
     inkscape:window-y="24"
     inkscape:window-maximized="1"
     inkscape:current-layer="svg3064" />
  <g
     id="g3074"
     transform="translate(0.06964451,0.10462033)">
    <path
       style="fill:#000000"
       d="m 1600,3282.0314 c -11.275,-0.2923 -18.925,-0.7969 -17,-1.1214 2.0707,-0.349 -0.5086,-0.6553 -6.3161,-0.75 -14.1483,-0.2306 -55.5421,-2.8801 -81.6839,-5.2284 C 1236.8766,3251.7454 993.28319,3170.1284 773.5,3033.1899 551.70083,2894.9954 362.09932,2700.6362 228.48605,2474.5 205.05362,2434.8414 173.10843,2374.1565 153.99891,2333 73.918879,2160.5304 25.181348,1978.5126 8.0683653,1788 c -2.3875699,-26.5799 -5.0143935,-67.8432 -5.2000065,-81.6839 -0.084821,-6.3248 -0.3638884,-8.5713 -0.784636,-6.3161 -1.15135565,6.1712 -2.13251746,-57.4823 -1.3799441,-89.5247 0.4001306,-17.0364 1.0212316,-29.4003 1.3802245,-27.4753 0.4100247,2.1986 0.7082524,-0.4041 0.8020843,-7 0.1858286,-13.0629 6.1095157,-103.3279 8.1375655,-124 3.006212,-30.6427 8.257208,-65.4193 14.419731,-95.5 7.012981,-34.2319 12.491422,-60.3198 15.445797,-73.5515 C 81.069163,1102.9949 151.45875,931.35166 249.81008,773.5 338.24122,631.57001 451.17325,500.98632 581,390.54397 738.44216,256.60946 924.8096,151.38326 1119.5,86.497815 1244.3014,44.904619 1364.5712,19.784256 1495,8.0683653 c 26.5799,-2.3875699 67.8432,-5.0143935 81.6839,-5.2000065 6.3224,-0.084788 8.5704,-0.3639511 6.3161,-0.7843556 -1.925,-0.3589929 10.4389,-0.9800939 27.4753,-1.3802245 32.0424,-0.75257336 95.6959,0.22858845 89.5247,1.3799441 -2.2552,0.4207476 -0.01,0.6998148 6.3161,0.784636 13.8407,0.185613 55.104,2.8124366 81.6839,5.2000065 44.9066,4.0337807 84.3383,9.0961877 128.0396,16.4382917 210.0645,35.292153 411.5433,111.789323 593.4604,225.324233 210.9208,131.63618 392.0329,312.74829 523.6691,523.66911 41.6834,66.78942 80.1596,139.69832 111.351,211 85.7826,196.0944 132.3209,408.1179 136.3059,620.9953 2.05,109.51 -4.9792,207.2537 -22.3327,310.5443 -35.2921,210.0645 -111.7893,411.5433 -225.3242,593.4604 -107.3599,172.0229 -248.3164,325.1389 -411.1691,446.6383 -59.1079,44.0985 -114.8085,80.2799 -181.5,117.8966 -22.8142,12.8681 -79.5443,41.9131 -105.5,54.0145 -173.0317,80.6727 -355.5609,129.686 -547,146.8822 -26.5799,2.3876 -67.8432,5.0144 -81.6839,5.2 -6.3214,0.085 -8.57,0.364 -6.3161,0.7843 1.925,0.3589 -10.1858,0.9747 -26.9129,1.3683 -30.7429,0.7236 -36.1369,0.7049 -73.0871,-0.2528 z m -38,-41.1065 c 93.5313,-4.9127 192.0654,-22.2819 266.2869,-46.9401 25.8512,-8.5884 39.3596,-14.5663 44.0108,-19.476 5.4434,-5.746 24.7447,-33.0427 35.1723,-49.7421 57.9114,-92.7429 102.9372,-206.3087 107.208,-270.4038 0.7032,-10.5532 2.1976,-9.1393 -13.1335,-12.4264 -9.1001,-1.9511 -11.5922,-3.0607 -29,-12.9118 -106.8803,-60.4838 -207.7908,-124.0393 -277.5445,-174.803 -97.5828,-71.0167 -147.0326,-123.557 -146.9947,-156.1818 0.01,-5.1093 0.3626,-5.7432 11.0725,-19.6794 48.9067,-63.6394 142.2667,-243.694 257.6268,-496.8605 23.5967,-51.7847 35.2954,-78.1279 35.2954,-79.4783 0,-0.6726 -5.849,-7.3084 -12.9979,-14.7462 -57.0433,-59.349 -158.2613,-197.0575 -329.5449,-448.3505 -20.778,-30.4838 -48.3562,-70.95 -61.2849,-89.925 -12.9286,-18.975 -25.2136,-36.8192 -27.2999,-39.6537 l -3.7932,-5.1537 -9.2896,-0.5831 c -5.1093,-0.3207 -31.7896,-1.0521 -59.2896,-1.6253 -258.9291,-5.3971 -417.30608,-5.0678 -495,1.0292 -16.67537,1.3086 -34.56473,3.7248 -39.29657,5.3075 -3.6133,1.2085 -3.69778,1.351 -3.47139,5.855 0.21511,4.2794 0.0327,4.6648 -2.5,5.2805 -6.10892,1.4852 -19.77706,9.0203 -28.96839,15.97 -10.00202,7.5626 -26.85467,23.9963 -36.48054,35.5736 -51.90206,62.424 -109.50649,175.4784 -164.67392,323.1888 -31.81108,85.1739 -60.32118,176.9606 -70.66499,227.502 -4.58429,22.3995 -4.49939,26.2964 0.98888,45.3881 23.73225,82.5561 83.55924,192.6008 172.96129,318.142 66.63157,93.5662 145.64638,189.1483 194.35158,235.1019 l 8.24596,7.7801 10.75404,2.4384 c 96.90286,21.9717 289.28115,22.9388 471.25405,2.369 67.1073,-7.5857 121.7969,-17.1816 157.5,-27.6352 6.6,-1.9324 12.9063,-3.717 14.0139,-3.9658 1.7654,-0.3964 2.4254,0.8031 5.3484,9.7208 1.834,5.5952 2.9527,10.5338 2.4861,10.9747 -3.8045,3.5948 -53.6431,15.3362 -93.0281,21.9162 -100.1843,16.7379 -223.1701,26.0591 -343.8203,26.0586 -99.1575,-4e-4 -164.18763,-5.2078 -220.20529,-17.6333 -8.91292,-1.977 -16.82668,-3.3561 -17.58614,-3.0647 -3.84592,1.4758 -45.61614,100.1258 -74.318,175.5191 -22.3423,58.6881 -46.3975,127.9744 -46.38201,133.5942 0.0106,3.8557 10.71781,23.7299 22.40713,41.5912 49.27028,75.285 128.13256,144.811 226.58431,199.7598 73.6173,41.0879 162.4803,75.3583 256.0352,98.741 10.1557,2.5382 20.0749,5.0386 22.0427,5.5563 3.219,0.8468 3.5355,1.2311 3.1539,3.8306 -0.2332,1.5891 0.038,3.1752 0.6039,3.5247 1.4766,0.9125 28.6597,6.8275 52.8815,11.5069 33.0044,6.376 59.2198,10.5785 107.2828,17.1982 19.5574,2.6937 77.8232,3.0891 121,0.8213 z m 464.1637,-34.8526 c 85.98,-20.834 177.5117,-51.8458 261.1885,-88.4933 261.0268,-114.3204 488.9752,-297.8671 657.6892,-529.579 11.7627,-16.1549 28.7287,-40.6548 30.4257,-43.9365 0.7844,-1.5168 2.7927,-8.1704 4.4628,-14.7857 7.8073,-30.925 10.305,-66.0311 4.7736,-67.0964 -0.9763,-0.188 -11.0965,1.928 -22.4893,4.7023 -54.5949,13.2943 -117.1768,23.777 -171.2142,28.6789 -23.8415,2.1628 -77.2451,2.9943 -97.5,1.5181 -20.0313,-1.4598 -57.814,-6.1913 -79.9219,-10.0086 -9.2632,-1.5994 -17.3479,-2.7139 -17.9662,-2.4767 -0.6182,0.2372 -3.5691,4.5532 -6.5576,9.5909 -19.9741,33.6708 -54.7571,71.9909 -102.0782,112.4588 -82.0443,70.1623 -214.9976,153.7705 -353.4761,222.2849 -36.1362,17.8789 -47.7287,22.9619 -54.0671,23.7068 -3.0375,0.357 -12.5337,-0.1391 -21.8249,-1.1401 -9.0463,-0.9747 -17.123,-1.5131 -17.9482,-1.1964 -0.981,0.3764 -1.7187,2.5879 -2.1309,6.3877 -4.3096,39.7226 -16.6076,84.8235 -36.7604,134.812 -26.6693,66.1527 -64.1989,135.1017 -100.0112,183.7399 -4.3949,5.9689 -7.7605,11.5049 -7.5762,12.462 0.9464,4.9142 39.9668,15.4872 72.8189,19.731 34.7983,4.4952 36.1205,4.4653 60.1637,-1.3606 z M 922,3080.5505 c 0,-0.7972 -3.0375,-3.5931 -6.75,-6.2131 -55.33879,-39.0543 -102.59302,-83.1606 -139.10403,-129.8374 -17.19082,-21.9773 -36.93619,-53.3396 -47.7983,-75.9198 l -2.84767,-5.9197 -13.5,-4.621 c -53.3765,-18.2705 -152.35558,-76.5451 -271,-159.5532 -22.72623,-15.9001 -26.53803,-18.2816 -27.58525,-17.2344 -1.11822,1.1182 1.91985,5.139 15.93215,21.0854 61.23281,69.6851 134.49411,139.9312 203.6531,195.2716 72.80774,58.26 145.45578,107.1411 226.5,152.4001 23.13698,12.9208 59.75815,31.991 61.43343,31.991 0.58661,0 1.06657,-0.6523 1.06657,-1.4495 z m 1852.5,-606.6288 c 55.8808,-3.4801 129.741,-15.7104 196.4376,-32.5274 21.1268,-5.3269 22.9786,-5.4992 23.0471,-2.1443 0.042,2.045 4.7809,0.2778 9.9767,-3.7203 36.6601,-28.2093 79.6649,-89.7715 122.366,-175.1692 13.7757,-27.55 18.0096,-37.2963 28.0745,-64.6267 50.6515,-137.5403 83.1127,-288.4958 93.5525,-435.0508 1.6628,-23.3423 -0.9062,-76.0072 -5.521,-113.183 -10.2331,-82.4351 -31.9559,-165.7163 -63.866,-244.8505 -17.5821,-43.602 -38.239,-85.2172 -54.2484,-109.2882 -4.2334,-6.3651 -5.2761,-8.6839 -4.785,-10.6409 0.3676,-1.4645 0.1498,-2.7978 -0.5252,-3.215 -3.3791,-2.0884 -108.7366,-11.0375 -172.5088,-14.653 -45.0999,-2.5569 -125.4692,-1.2735 -128.8073,2.0568 -0.4441,0.443 -2.0981,6.6734 -3.6756,13.8452 -13.6025,61.8395 -41.0268,148.2646 -70.8399,223.2456 -51.9223,130.586 -115.3858,243.0547 -180.5685,320 -11.9592,14.1172 -35.7315,39.9725 -42.5934,46.3254 -3.3084,3.063 -6.0153,6.3033 -6.0153,7.2008 0,0.8974 2.0295,3.6612 4.51,6.1417 24.0146,24.0146 44.8113,73.6407 61.9518,147.8321 24.0178,103.9595 37.1249,241.996 34.3733,362 -0.7169,31.2631 -2.0078,42.98 -6.4246,58.3139 -1.6947,5.8836 -2.3328,9.6638 -1.7326,10.264 1.1419,1.1419 10.9644,2.9178 34.9331,6.3159 52.1636,7.3953 82.5852,8.6608 132.889,5.5279 z M 200,2354.4002 c 0,-0.8799 -3.14034,-12.5644 -6.97853,-25.9656 C 160.0606,2213.3503 144.89878,2100.5055 148.15402,1994.5 l 0.79841,-26 -4.72621,-3.9504 C 108.70446,1934.8588 72.84468,1870.9794 46.380227,1790.25 41.328156,1774.8387 38.293474,1767 37.379243,1767 c -1.781871,0 -1.762162,3.2463 0.145711,24 15.762325,171.4612 59.106028,339.497 128.197766,497 9.85615,22.4683 28.35484,61.9432 30.71758,65.5492 1.83251,2.7968 3.5597,3.2097 3.5597,0.851 z m 163.5,-404.3541 c 43.89653,-2.1172 70.54881,-4.3246 98.754,-8.1787 8.6647,-1.184 16.44932,-2.6612 17.29917,-3.2826 0.99297,-0.7261 2.73497,-7.0186 4.87439,-17.6073 13.79218,-68.2625 55.20074,-195.6724 96.84346,-297.9775 42.9387,-105.4889 86.60514,-189.5067 127.59343,-245.5 17.01628,-23.2456 39.66538,-47.7007 54.56086,-58.9113 4.16608,-3.1355 7.57469,-6.3391 7.57469,-7.1191 0,-0.78 -1.27589,-2.078 -2.83531,-2.8844 -5.4316,-2.8088 -14.38411,-10.8916 -20.27689,-18.307 C 719.64419,1254.7365 696.88492,1182.3433 682.09414,1081 670.86936,1004.0902 665.29772,908.85337 667.81802,836.9764 c 0.68375,-19.50009 1.81889,-37.44263 2.71892,-42.9764 2.16324,-13.3006 8.36245,-31.18986 16.19892,-46.74571 4.58464,-9.10078 6.3499,-13.56853 5.64114,-14.27729 -1.58434,-1.58434 -57.72437,6.96333 -118.877,18.09977 -100.99939,18.3929 -195.87516,39.72113 -245.31193,55.14653 l -13.31194,4.15363 -8.68806,9.08817 c -33.58954,35.13641 -85.51092,106.28128 -123.50268,169.22859 -22.70673,37.62201 -49.12424,87.06581 -56.56975,105.87771 -5.22167,13.1931 -19.39696,55.7076 -26.983397,80.9286 -35.439295,117.8174 -56.842001,236.5948 -65.139316,361.5 -3.403626,51.2371 -2.772674,69.2181 4.123067,117.5 13.373761,93.639 44.412818,185.3881 83.972266,248.2158 13.15183,20.8875 28.96161,39.2902 38.64351,44.9814 4.74561,2.7895 4.87736,2.8057 27.76823,3.4231 32.16154,0.8675 149.70275,0.146 175,-1.0742 z M 2023,1895.9617 c 232.4221,-4.037 382.8044,-11.1889 432.1699,-20.5534 4.2695,-0.8099 10.7764,-2.6069 14.4597,-3.9933 3.6834,-1.3864 9.661,-2.7763 13.2837,-3.0885 l 6.5867,-0.5678 21.5,-21.6294 c 23.9042,-24.048 38.8365,-41.3685 60.0286,-69.6293 61.9975,-82.6772 120.0252,-194.9376 167.4766,-324 26.3744,-71.7354 49.4294,-151.1033 57.5157,-198 2.3686,-13.7365 2.277,-14.6202 -3.213,-31 -26.268,-78.3726 -86.9188,-180.9303 -175.6405,-297 -54.3109,-71.05184 -117.88,-145.28247 -172.5877,-201.53324 l -16.0797,-16.53324 -14,-3.24603 c -99.4451,-23.05731 -253.6648,-35.60848 -416,-33.85615 -89.1437,0.96226 -158.9535,5.03338 -218.5,12.74234 -20.1242,2.6053 -45.0911,6.75772 -47,7.81691 -1.1584,0.64276 -1.5,2.85649 -1.5,9.72085 l 0,8.88856 -7.3389,9 c -41.6964,51.13359 -125.0114,208.15581 -227.8901,429.5 -26.6018,57.234 -62.271,136.098 -62.271,137.6802 0,0.8035 4.4298,7.8416 9.844,15.6403 5.4142,7.7987 28.6649,41.8545 51.6682,75.6795 73.3204,107.8134 113.8545,166.6368 159.8667,232 113.8887,161.786 190.6422,259.2894 220.6608,280.3153 1.6437,1.1513 1.9147,1.917 1.1817,3.3393 -0.5231,1.015 -0.7308,2.4638 -0.4615,3.2196 0.5218,1.4646 14.3449,1.3784 146.2401,-0.9125 z M 3248.334,1535.572 c 0.3014,-0.7854 0.1322,-6.9729 -0.376,-13.75 -12.7738,-170.3477 -51.0839,-333.4068 -115.1994,-490.322 -10.5942,-25.9282 -11.3535,-27.5 -13.2843,-27.5 -1.8544,0 -1.8579,-0.088 0.4477,11.1399 2.6382,12.8484 6.6688,39.5088 8.5208,56.3601 4.4511,40.5026 4.9507,52.8898 5.0626,125.5227 l 0.1086,70.5228 4.589,5.8468 c 14.0776,17.9364 39.9131,68.1261 58.9951,114.6077 16.5301,40.2656 32.6731,88.7398 43.7923,131.5 4.4253,17.0179 5.8142,20.0576 7.3436,16.072 z M 343.56424,778.01569 c 85.3437,-23.90623 266.43748,-59.31757 358.21986,-70.04684 l 10.2841,-1.2022 12.18634,-14.63332 C 790.61429,612.44867 921.31972,518.31362 1094.5,425.4797 c 29.9665,-16.06366 90.0468,-45.74882 97.05,-47.9516 4.9297,-1.55058 8.5808,-1.74288 26.8016,-1.41161 l 21.0945,0.38351 3.1353,-15.5 c 3.7938,-18.75502 7.0169,-30.7115 13.6134,-50.5 22.1441,-66.42926 61.3699,-142.01601 100.0083,-192.71273 11.8245,-15.51464 29.1445,-35.180992 37.8406,-42.966801 3.826,-3.425466 6.9563,-6.96978 6.9563,-7.876256 0,-3.511315 -24.0641,-12.376242 -33.5,-12.341008 -9.4784,0.03539 -64.9936,11.226348 -110.5,22.274979 C 1056.3944,125.58385 860.6972,216.75472 692.5,339.8659 620.96474,392.22582 561.18597,443.7423 497.84761,507.61453 452.341,553.50472 417.61639,592.45609 379.72644,640.1137 c -14.84449,18.67127 -42.40563,55.36524 -44.21866,58.87125 -2.08371,4.02945 -6.19335,21.06116 -8.59299,35.61218 -2.19803,13.32848 -3.15378,39.26037 -1.64574,44.65287 0.44163,1.5792 1.47205,2.75 2.42026,2.75 0.90817,0 8.05188,-1.79294 15.87493,-3.98431 z M 2405.3277,670.5 c 2.1227,-3.85 18.2735,-35.35 35.8908,-70 59.2124,-116.45998 75.8729,-148.64294 98.4045,-190.08743 5.7073,-10.49809 10.377,-19.6534 10.377,-20.34514 0,-1.58189 -9.8856,-14.44769 -25.0236,-32.56743 -44.2325,-52.9452 -118.0928,-127.14597 -146.991,-147.66873 -7.2283,-5.13337 -29.204,-16.33909 -59.4334,-30.30595 C 2136.0452,95.201973 1947.0102,47.244463 1744.5,33.890356 c -67.9667,-4.481923 -219.8855,13.796864 -297,35.734875 -16.3558,4.653013 -22.3926,7.870379 -33.1723,17.679465 -23.0734,20.995894 -45.5226,49.177554 -68.2641,85.695304 -30.4997,48.97563 -60.4115,114.81629 -73.9912,162.86657 -4.3129,15.26057 -9.0724,36.59704 -9.0724,40.67079 0,3.18343 1.9679,3.97887 13.4942,5.45456 8.7756,1.12352 9.6509,1.4937 36,15.22535 206.2825,107.50242 353.8138,205.54414 401.4497,266.78273 5.3347,6.85804 6.1427,7.31507 10.7927,6.10483 2.0698,-0.53873 8.9384,-1.87932 15.2634,-2.9791 137.9111,-23.97961 395.978,-25.14551 572,-2.5842 23.2428,2.97911 60.9418,8.83932 73.5,11.4254 4.95,1.01934 10.5679,1.78129 12.4842,1.69321 3.2284,-0.14838 3.7676,-0.67406 7.3435,-7.16014 z M 2828,553.10131 c 0,-2.08297 -38.3834,-41.91534 -67.9317,-70.49613 -81.918,-79.23574 -175.983,-152.57548 -269.9777,-210.49392 -15.851,-9.7672 -19.0906,-11.30395 -19.0906,-9.05586 0,0.58047 6.4125,7.85602 14.25,16.16789 44.3485,47.03265 75.3806,83.74784 91.9173,108.75049 5.1591,7.80031 5.5445,8.13478 12.8258,11.12947 11.9525,4.91589 44.1299,21.71358 61.0069,31.84769 41.1694,24.72089 94.2355,62.02493 162.7766,114.42761 10.4014,7.95232 14.2234,10.02752 14.2234,7.72276 z"
       id="path3076"
       inkscape:connector-curvature="0" />
  </g>
</svg>
