<?xml version="1.0" encoding="UTF-8" standalone="no"?>
<!-- Created with Inkscape (http://www.inkscape.org/) -->

<svg
   xmlns:dc="http://purl.org/dc/elements/1.1/"
   xmlns:cc="http://creativecommons.org/ns#"
   xmlns:rdf="http://www.w3.org/1999/02/22-rdf-syntax-ns#"
   xmlns:svg="http://www.w3.org/2000/svg"
   xmlns="http://www.w3.org/2000/svg"
   xmlns:xlink="http://www.w3.org/1999/xlink"
   version="1.1"
   width="744.09448"
   height="1052.3622"
   id="svg2">
  <defs
     id="defs4">
    <linearGradient
       id="linearGradient3759">
      <stop
         id="stop3761"
         style="stop-color:#1bbf1b;stop-opacity:1"
         offset="0" />
    </linearGradient>
    <linearGradient
       x1="106.06602"
       y1="495.01053"
       x2="282.33765"
       y2="495.01053"
       id="linearGradient3763"
       xlink:href="#linearGradient3759"
       gradientUnits="userSpaceOnUse" />
  </defs>
  <metadata
     id="metadata7">
    <rdf:RDF>
      <cc:Work
         rdf:about="">
        <dc:format>image/svg+xml</dc:format>
        <dc:type
           rdf:resource="http://purl.org/dc/dcmitype/StillImage" />
        <dc:title></dc:title>
      </cc:Work>
    </rdf:RDF>
  </metadata>
  <g
     id="layer1">
    <path
       d="m 106.06602,466.97879 176.27162,0 0,56.06347 -176.27162,0 z"
       id="rect2989"
       style="fill:url(#linearGradient3763);fill-opacity:1;stroke:none" />
    <g
       transform="scale(0.98591104,1.0142903)"
       id="text2985"
       style="font-size:42.54945374px;font-style:normal;font-variant:normal;font-weight:normal;font-stretch:normal;line-height:125%;letter-spacing:0px;word-spacing:0px;fill:#ffffff;fill-opacity:1;stroke:none;font-family:SF Collegiate;-inkscape-font-specification:SF Collegiate">
      <path
         d="m 135.59404,499.56708 -5.48489,5.48489 -10.28417,0 -5.50567,-5.48489 0,-7.27163 4.42531,0 -4.42531,-4.42531 0,-11.36453 5.50567,-5.48489 10.28417,0 5.48489,5.48489 0,7.27163 -4.42531,0 4.42531,4.42531 0,11.36453 m -0.85182,-0.39474 0,-10.59582 -5.6511,-5.6511 5.6511,0 0,-6.04584 -5.00704,-5.00704 -9.53623,0 -5.02782,5.00704 0,10.59581 5.67188,5.67188 -5.67188,0 0,6.02507 5.02782,5.02781 9.53623,0 5.00704,-5.02781 m -1.26734,-0.49863 -4.2591,4.2591 -8.49743,0 -4.2591,-4.2591 0,-4.2591 6.37826,0 0,2.11916 4.2591,0 0,-5.31868 -6.37826,0 -4.2591,-4.23833 0,-9.57778 4.2591,-4.2591 8.49743,0 4.2591,4.2591 0,4.2591 -6.37827,0 0,-2.13994 -4.2591,0 0,5.31869 6.37827,0 4.2591,4.2591 0,9.57778"
         id="path3814" />
      <path
         d="m 159.40345,499.9826 -5.04859,5.06937 -9.45313,0 -5.06937,-5.06937 0,-25.9909 19.57109,0 0,25.9909 m -0.83104,-0.37397 0,-24.76511 -17.88823,0 0,24.76511 4.6123,4.59152 8.66363,0 4.6123,-4.59152 m -1.28812,-0.5194 -3.8228,3.84358 -7.66639,0 -3.8228,-3.84358 0,-22.97837 5.73421,0 0,21.06697 3.84357,0 0,-21.06697 5.73421,0 0,22.97837"
         id="path3816" />
      <path
         d="m 183.25441,489.42834 -5.04859,5.11092 -4.50841,0 0,10.51271 -10.01408,0 0,-31.06027 14.52249,0 5.04859,5.06937 0,10.36727 m -0.83104,-0.33241 0,-9.66089 -4.6123,-4.59152 -13.27592,0 0,29.35663 8.31044,0 0,-10.51271 4.96548,0 4.6123,-4.59151 m -1.28812,-0.51941 -3.8228,3.84358 -5.75498,0 0,10.51271 -5.73421,0 0,-26.82195 11.48919,0 3.8228,3.84358 0,8.62208 m -5.7342,-1.9114 0,-4.79928 -3.84358,0 0,4.79928 3.84358,0"
         id="path3818" />
      <path
         d="m 206.02502,505.05197 -19.57109,0 0,-31.06027 14.5225,0 5.04859,5.06937 0,8.66363 -1.78675,1.78675 1.78675,1.78674 0,13.75378 m -0.83104,-0.85182 0,-12.50721 -2.1815,-2.18149 2.1815,-2.16072 0,-7.91569 -4.6123,-4.59152 -13.27593,0 0,29.35663 17.88823,0 m -1.28812,-1.26734 -5.73421,0 0,-10.51271 -3.84358,0 0,10.51271 -5.7342,0 0,-26.82195 11.48918,0 3.82281,3.84358 0,6.87689 -2.68012,2.68012 2.68012,2.70089 0,10.72047 m -5.73421,-16.26769 0,-4.79928 -3.84358,0 0,4.79928 3.84358,0"
         id="path3820" />
      <path
         d="m 231.57963,499.56708 -5.48489,5.48489 -10.28417,0 -5.50567,-5.48489 0,-7.27163 4.42531,0 -4.42531,-4.42531 0,-11.36453 5.50567,-5.48489 10.28417,0 5.48489,5.48489 0,7.27163 -4.42531,0 4.42531,4.42531 0,11.36453 m -0.85182,-0.39474 0,-10.59582 -5.6511,-5.6511 5.6511,0 0,-6.04584 -5.00704,-5.00704 -9.53623,0 -5.02782,5.00704 0,10.59581 5.67188,5.67188 -5.67188,0 0,6.02507 5.02782,5.02781 9.53623,0 5.00704,-5.02781 m -1.26735,-0.49863 -4.2591,4.2591 -8.49742,0 -4.2591,-4.2591 0,-4.2591 6.37826,0 0,2.11916 4.2591,0 0,-5.31868 -6.37826,0 -4.2591,-4.23833 0,-9.57778 4.2591,-4.2591 8.49742,0 4.2591,4.2591 0,4.2591 -6.37826,0 0,-2.13994 -4.2591,0 0,5.31869 6.37826,0 4.2591,4.2591 0,9.57778"
         id="path3822" />
      <path
         d="m 255.38904,499.9826 -5.04859,5.06937 -9.45313,0 -5.06937,-5.06937 0,-25.9909 19.57109,0 0,25.9909 m -0.83104,-0.37397 0,-24.76511 -17.88823,0 0,24.76511 4.6123,4.59152 8.66363,0 4.6123,-4.59152 m -1.28812,-0.5194 -3.8228,3.84358 -7.66639,0 -3.8228,-3.84358 0,-22.97837 5.73421,0 0,21.06697 3.84357,0 0,-21.06697 5.73421,0 0,22.97837"
         id="path3824" />
      <path
         d="m 279.63475,499.60863 -5.44333,5.44334 -14.5225,0 0,-31.06027 14.5225,0 5.04859,5.06937 0,8.66363 -1.78675,1.78675 2.18149,2.18149 0,7.91569 m -0.85182,-0.39474 0,-7.14698 -2.55546,-2.55546 2.18149,-2.16072 0,-7.91569 -4.61229,-4.59152 -13.27593,0 0,29.35663 13.27593,0 4.98626,-4.98626 m -1.26734,-0.49863 -4.21755,4.21755 -11.48918,0 0,-26.82195 11.48918,0 3.82281,3.84358 0,6.87689 -2.68012,2.68012 3.07486,3.07486 0,6.12895 m -6.12895,-12.05014 0,-4.79928 -3.84358,0 0,4.79928 3.84358,0 m 0,10.51271 0,-4.75773 -3.84358,0 0,4.75773 3.84358,0"
         id="path3826" />
    </g>
    <path
       d="m 179.80713,573.54987 60.60915,0 0,65.65991 -60.60915,0 z"
       id="rect3765"
       style="fill:#1bbf1b;fill-opacity:1;stroke:none" />
    <g
       transform="scale(1.0490874,0.95320943)"
       id="text3767"
       style="font-size:63.16343689px;font-style:normal;font-variant:normal;font-weight:normal;font-stretch:normal;line-height:125%;letter-spacing:0px;word-spacing:0px;fill:#ffffff;fill-opacity:1;stroke:none;font-family:SF Collegiate;-inkscape-font-specification:SF Collegiate">
      <path
         d="m 216.07132,653.2625 -8.14216,8.14216 -15.26656,0 -8.173,-8.14216 0,-10.79453 6.56924,0 -6.56924,-6.56925 0,-16.87031 8.173,-8.14216 15.26656,0 8.14216,8.14216 0,10.79453 -6.56925,0 6.56925,6.56925 0,16.87031 m -1.2645,-0.58599 0,-15.72917 -8.3889,-8.3889 8.3889,0 0,-8.97488 -7.43281,-7.43281 -14.15626,0 -7.46365,7.43281 0,15.72918 8.41974,8.41973 -8.41974,0 0,8.94404 7.46365,7.46365 14.15626,0 7.43281,-7.46365 m -1.88134,-0.74019 -6.32251,6.32251 -12.61418,0 -6.32251,-6.32251 0,-6.32252 9.46834,0 0,3.14584 6.32252,0 0,-7.89543 -9.46835,0 -6.32251,-6.29167 0,-14.21794 6.32251,-6.32251 12.61418,0 6.32251,6.32251 0,6.32251 -9.46834,0 0,-3.17668 -6.32252,0 0,7.89543 9.46835,0 6.32251,6.32251 0,14.21795"
         id="path3810" />
    </g>
  </g>
</svg>
